<svg width="80" height="80" viewBox="0 0 80 80" fill="none" xmlns="http://www.w3.org/2000/svg">
<rect x="1" y="1" width="78" height="78" stroke="white" stroke-width="2"/>
<path d="M10.239 57.101H10.26C12.255 55.862 14.187 55.232 16.035 55.232C18.051 55.232 19.059 55.82 19.059 57.017C19.059 57.584 18.723 58.088 18.051 58.529C17.232 59.075 15.783 59.621 13.704 60.167V62.456H13.725C16.686 61.763 18.765 60.986 19.92 60.146C21.117 59.285 21.726 58.214 21.726 56.933C21.726 53.93 18.702 52.964 16.182 52.964C14.103 52.964 12.129 53.468 10.239 54.497V57.101ZM14.88 68.231C15.951 68.231 16.833 67.517 16.833 66.404V66.383C16.833 65.249 15.972 64.577 14.88 64.577C13.788 64.577 12.927 65.249 12.927 66.383V66.404C12.927 67.517 13.809 68.231 14.88 68.231Z" fill="white"/>
</svg>
