<svg width="80" height="80" viewBox="0 0 80 80" fill="none" xmlns="http://www.w3.org/2000/svg">
<path d="M79.712 58.24C79.152 56.72 78.096 55.92 76.896 55.248C76.672 55.12 76.464 55.008 76.288 54.928C75.936 54.736 75.568 54.56 75.2 54.368C71.44 52.368 68.512 49.856 66.464 46.88C65.776 45.872 65.296 44.96 64.96 44.224C64.784 43.728 64.8 43.44 64.912 43.184C65.008 42.992 65.264 42.784 65.392 42.688C66.032 42.256 66.704 41.824 67.152 41.536C67.952 41.008 68.592 40.608 69.008 40.32C70.544 39.248 71.632 38.096 72.304 36.816C73.248 35.008 73.376 32.944 72.64 31.008C71.616 28.32 69.072 26.64 66 26.64C65.36 26.64 64.72 26.704 64.064 26.848C63.888 26.88 63.728 26.928 63.568 26.96C63.6 25.136 63.552 23.184 63.392 21.264C62.816 14.544 60.464 11.024 58 8.20799C56.976 7.03999 55.2 5.32799 52.528 3.79199C48.816 1.69599 44.608 0.623993 40 0.623993C35.408 0.623993 31.2 1.69599 27.472 3.82399C24.784 5.35999 23.008 7.07199 21.984 8.23999C19.536 11.04 17.184 14.576 16.592 21.296C16.432 23.2 16.384 25.152 16.416 26.992C16.256 26.944 16.08 26.912 15.92 26.88C15.28 26.736 14.624 26.672 13.984 26.672C10.896 26.672 8.35202 28.336 7.34402 31.04C6.60802 32.976 6.73602 35.04 7.68002 36.848C8.35202 38.128 9.44002 39.28 10.976 40.352C11.392 40.64 12.032 41.056 12.832 41.568C13.264 41.856 13.904 42.256 14.528 42.672C14.624 42.736 14.96 42.976 15.072 43.216C15.2 43.488 15.2 43.776 15.008 44.304C14.672 45.04 14.208 45.92 13.536 46.912C11.552 49.824 8.68802 52.288 5.05602 54.272C3.13602 55.296 1.12002 55.968 0.272016 58.272C-0.367984 60.016 0.0480161 61.984 1.68002 63.648C2.20802 64.224 2.88002 64.736 3.72802 65.2C5.71202 66.304 7.40802 66.832 8.73602 67.2C8.97602 67.264 9.50402 67.44 9.74402 67.648C10.336 68.16 10.256 68.944 11.04 70.08C11.52 70.784 12.064 71.264 12.512 71.584C14.16 72.72 16.016 72.8 17.984 72.864C19.76 72.928 21.776 73.008 24.08 73.776C25.04 74.096 26.016 74.704 27.168 75.408C29.92 77.104 33.696 79.408 40 79.408C46.304 79.408 50.096 77.088 52.88 75.376C54.016 74.672 55.008 74.08 55.92 73.776C58.224 73.024 60.24 72.944 62.016 72.864C63.984 72.784 65.84 72.72 67.488 71.584C68 71.232 68.656 70.64 69.168 69.744C69.728 68.784 69.712 68.112 70.256 67.632C70.48 67.44 70.944 67.28 71.2 67.2C72.544 66.832 74.256 66.288 76.272 65.184C77.168 64.688 77.872 64.144 78.416 63.536L78.432 63.52C79.952 61.856 80.336 59.936 79.712 58.24ZM74.112 61.248C70.688 63.136 68.416 62.928 66.656 64.08C65.152 65.04 66.048 67.136 64.944 67.888C63.6 68.816 59.632 67.824 54.528 69.52C50.304 70.912 47.616 74.928 40.016 74.928C32.4 74.928 29.776 70.928 25.504 69.52C20.384 67.824 16.416 68.816 15.088 67.888C14 67.136 14.88 65.056 13.376 64.08C11.616 62.944 9.32802 63.136 5.92002 61.248C3.74402 60.048 4.97602 59.296 5.69602 58.944C18.08 52.944 20.064 43.68 20.144 42.992C20.256 42.16 20.368 41.504 19.456 40.656C18.576 39.84 14.64 37.408 13.552 36.656C11.744 35.392 10.96 34.144 11.536 32.592C11.936 31.52 12.944 31.12 14 31.12C14.32 31.12 14.656 31.152 14.976 31.232C16.96 31.664 18.88 32.656 19.984 32.928C20.144 32.96 20.272 32.976 20.4 32.976C20.992 32.976 21.2 32.672 21.168 32C21.04 29.84 20.736 25.616 21.072 21.68C21.536 16.256 23.296 13.568 25.376 11.184C26.368 10.048 31.056 5.08799 40.032 5.08799C49.024 5.08799 53.68 10.032 54.688 11.184C56.768 13.568 58.512 16.256 58.992 21.68C59.328 25.616 59.04 29.84 58.896 32C58.848 32.72 59.072 32.976 59.664 32.976C59.792 32.976 59.92 32.96 60.08 32.928C61.184 32.656 63.12 31.664 65.088 31.232C65.408 31.168 65.744 31.12 66.064 31.12C67.12 31.12 68.112 31.52 68.528 32.592C69.12 34.144 68.32 35.392 66.512 36.656C65.424 37.408 61.504 39.84 60.608 40.656C59.696 41.504 59.808 42.16 59.92 42.992C60.016 43.696 61.984 52.944 74.368 58.944C75.056 59.296 76.288 60.048 74.112 61.248Z" fill="white"/>
</svg>
