<svg width="70" height="70" viewBox="0 0 70 70" fill="none" xmlns="http://www.w3.org/2000/svg">
<path fill-rule="evenodd" clip-rule="evenodd" d="M55.0229 39.8542C54.4417 42.6542 51.8583 49.8417 43.6187 53.7333L40.3104 50.0125L34.7271 55.625C31.5503 55.5825 28.4264 54.8059 25.5994 53.3559C22.7725 51.906 20.3192 49.8219 18.4312 47.2667C19.0242 47.4515 19.6367 47.5668 20.2562 47.6104C21.1708 47.6271 22.1604 47.2917 22.1604 45.7563V30.6104C22.1733 30.2211 22.095 29.8342 21.9317 29.4805C21.7685 29.1268 21.5249 28.8161 21.2203 28.5733C20.9158 28.3304 20.5587 28.1621 20.1775 28.0817C19.7963 28.0014 19.4017 28.0112 19.025 28.1104C16.4396 28.7063 14.375 35.1563 14.375 35.1563C14.346 32.1783 14.9659 29.2297 16.1917 26.5156C17.4175 23.8015 19.2196 21.3868 21.4729 19.4396C24.4387 16.8742 28.0693 15.1994 31.9458 14.6083C29.1229 16.2167 27.5375 18.8396 27.5375 21.0396C27.5375 24.5813 29.6708 24.1521 30.3021 23.6313V44.0729C30.4096 44.3293 30.5497 44.5709 30.7187 44.7917C31.0008 45.1818 31.372 45.4988 31.8015 45.7162C32.2309 45.9336 32.7061 46.0452 33.1875 46.0417C35.3229 46.0417 38.0937 43.6042 38.0937 43.6042V27.0583C38.0937 25.375 36.825 23.3417 35.5542 22.6438C35.5542 22.6438 37.9062 22.2271 39.7208 23.6167C40.0617 23.2002 40.424 22.8018 40.8062 22.4229C45.0417 18.2667 49.0312 17.0833 52.3542 16.4917C52.3542 16.4917 46.3125 21.2396 46.3125 27.6104C46.3125 32.3479 46.4354 43.9021 46.4354 43.9021C48.6771 46.0667 52.0104 42.9396 55.0229 39.8542Z" fill="white"/>
<path fill-rule="evenodd" clip-rule="evenodd" d="M35.0001 1.30417C28.3356 1.30417 21.8209 3.2804 16.2796 6.98294C10.7384 10.6855 6.41952 15.9481 3.86916 22.1052C1.3188 28.2623 0.651509 35.0374 1.95167 41.5737C3.25183 48.1101 6.46105 54.1141 11.1735 58.8266C15.8859 63.539 21.89 66.7482 28.4263 68.0484C34.9627 69.3485 41.7378 68.6813 47.8949 66.1309C54.052 63.5805 59.3146 59.2617 63.0171 53.7204C66.7197 48.1792 68.6959 41.6644 68.6959 35C68.6959 26.0633 65.1458 17.4926 58.8266 11.1735C52.5074 4.85426 43.9367 1.30417 35.0001 1.30417ZM35.0001 67.3458C28.6021 67.3458 22.3479 65.4486 17.0283 61.8941C11.7087 58.3396 7.56255 53.2874 5.11427 47.3765C2.66599 41.4655 2.02552 34.9613 3.27384 28.6864C4.52216 22.4115 7.60321 16.6476 12.1274 12.1238C16.6515 7.5999 22.4155 4.51922 28.6906 3.2713C34.9656 2.02339 41.4697 2.66428 47.3805 5.11294C53.2913 7.5616 58.3432 11.708 61.8974 17.0279C65.4516 22.3478 67.3484 28.6021 67.348 35C67.348 43.5792 63.9399 51.807 57.8735 57.8734C51.8071 63.9399 43.5793 67.3479 35.0001 67.3479V67.3458Z" fill="white"/>
</svg>
