<svg width="80" height="80" viewBox="0 0 80 80" fill="none" xmlns="http://www.w3.org/2000/svg">
<rect x="1" y="1" width="78" height="78" stroke="white" stroke-width="2"/>
<path d="M19.815 68L25.233 53.3H22.335L17.925 65.48H17.148L12.717 53.3H9.798L15.216 68H19.815ZM30.5995 68V63.38H35.0305L38.4325 68H41.6035L37.6975 62.897C39.9445 62.267 41.0575 60.713 41.0575 58.235C41.0575 54.938 39.2305 53.3 35.5765 53.3H27.9115V68H30.5995ZM30.5995 55.736H35.4925C37.3825 55.736 38.3275 56.618 38.3275 58.361C38.3275 60.125 37.3825 61.007 35.4925 61.007H30.5995V55.736ZM47.0149 68V57.5H47.1619L52.6219 67.013H52.8319L58.3339 57.5H58.4809V68H61.1479V53.3H57.8929L52.7899 62.393L47.5819 53.3H44.3899V68H47.0149Z" fill="white"/>
</svg>
