<svg width="23" height="18" viewBox="0 0 23 18" fill="none" xmlns="http://www.w3.org/2000/svg">
<path d="M19.4951 2.74764C17.6132 1.23531 14.6375 0.979118 14.5117 0.968249C14.313 0.951169 14.1243 1.06374 14.0428 1.24541C14.0397 1.25162 13.8736 1.73373 13.7128 2.19876C15.8998 2.5815 17.3858 3.43083 17.4649 3.47741C17.836 3.69324 17.9603 4.16914 17.7437 4.53946C17.6 4.78634 17.34 4.92453 17.0729 4.92453C16.9401 4.92453 16.8066 4.89115 16.6839 4.81972C16.6622 4.80652 14.4822 3.56592 11.64 3.56592C8.79699 3.56592 6.61623 4.8073 6.59449 4.81972C6.22417 5.03477 5.74904 4.90823 5.53399 4.53713C5.31894 4.16759 5.44394 3.69324 5.81348 3.47741C5.89267 3.43083 7.38404 2.5784 9.57723 2.19644C9.40798 1.72597 9.23718 1.25162 9.23408 1.24541C9.15256 1.06296 8.96391 0.948064 8.76516 0.968249C8.63939 0.978341 5.66364 1.23454 3.75693 2.76783C2.76009 3.68858 0.769531 9.07179 0.769531 13.726C0.769531 13.8083 0.790493 13.8883 0.831639 13.9597C2.20656 16.3741 5.95478 17.0061 6.80876 17.0333C6.8142 17.034 6.81885 17.034 6.82351 17.034C6.97412 17.034 7.1162 16.9618 7.20548 16.84L8.12933 15.5885C6.10306 15.1002 5.03169 14.3323 4.96726 14.285C4.62256 14.0311 4.54803 13.5451 4.8019 13.1996C5.05499 12.8557 5.53943 12.7796 5.88413 13.032C5.91285 13.0506 7.89022 14.4348 11.6384 14.4348C15.4014 14.4348 17.3733 13.0452 17.3927 13.0312C17.7374 12.7812 18.2234 12.8565 18.4758 13.2028C18.7273 13.5475 18.6543 14.0303 18.3112 14.2834C18.2467 14.3308 17.1808 15.097 15.1592 15.5854L16.0714 16.8392C16.1607 16.9618 16.3027 17.0333 16.4534 17.0333C16.4588 17.0333 16.4635 17.0333 16.4681 17.0325C17.3229 17.0053 21.0711 16.3734 22.4452 13.9589C22.4864 13.8875 22.5073 13.8075 22.5073 13.7252C22.5073 9.07179 20.5168 3.68858 19.4951 2.74764ZM8.53304 12.1058C7.67517 12.1058 6.98033 11.237 6.98033 10.1649C6.98033 9.09276 7.67517 8.22402 8.53304 8.22402C9.3909 8.22402 10.0857 9.09276 10.0857 10.1649C10.0857 11.237 9.3909 12.1058 8.53304 12.1058ZM14.7438 12.1058C13.886 12.1058 13.1911 11.237 13.1911 10.1649C13.1911 9.09276 13.886 8.22402 14.7438 8.22402C15.6017 8.22402 16.2965 9.09276 16.2965 10.1649C16.2965 11.237 15.6017 12.1058 14.7438 12.1058Z" fill="#171717"/>
</svg>
