<svg width="512" height="512" viewBox="0 0 512 512" fill="none" xmlns="http://www.w3.org/2000/svg">
<g clip-path="url(#clip0_103_2)">
<path d="M376.164 288.432C367.371 298.841 366.51 313.802 379.336 321.089C385.705 324.71 390.392 314.321 384.05 310.716C374.21 305.124 386.742 292.975 391.47 290.142C398.687 285.819 408.388 284.44 415.299 289.725C421.435 294.419 426.985 303.827 422.451 311.178C418.163 318.129 409.024 319.243 401.664 319.881C394.345 320.514 395.34 331.865 402.648 331.232C415.848 330.089 431.649 325.251 435.172 310.555C438.405 297.068 427.281 280.348 414.471 276.211C400.99 271.858 385.057 277.904 376.164 288.432Z" fill="black"/>
<path d="M399.931 298.074C399.594 300.707 400.812 302.786 402.881 303.945C400.576 304.85 398.803 307.128 399.139 309.724C399.528 312.7 402.147 315.288 405.308 314.907C410.543 314.278 415.007 310.092 415.237 304.687C415.474 299.128 411.723 294.825 406.51 293.424C403.62 292.647 400.297 295.214 399.931 298.074Z" fill="black"/>
<path d="M160.636 173.842C158.571 177.779 156.679 181.765 154.918 185.836C154.28 185.625 153.582 185.525 152.801 185.554C123.62 187.103 95.5045 196.967 66.1084 195.842C58.783 195.545 59.8594 206.887 67.0834 207.189C95.363 208.263 122.441 199.201 150.446 197.124C147.468 205.543 145.128 214.174 143.423 222.913C142.745 222.694 142.041 222.635 141.361 222.66C140.308 222.602 139.272 222.813 138.352 223.289C137.091 222.54 135.542 222.274 133.742 222.885C119.719 227.669 105.465 231.189 90.7956 233.43C86.8063 234.053 85.3119 237.761 85.996 240.802C86.5532 243.267 88.5356 245.282 91.7866 244.799C107.384 242.39 122.692 238.684 137.622 233.605C137.669 233.572 137.715 233.539 137.756 233.546C138.682 234.216 139.786 234.691 141.084 234.751C141.225 234.754 141.335 234.712 141.455 234.733C140.887 239.111 140.5 243.498 140.297 247.898C140.091 251.357 140.028 254.82 140.068 258.281C139.697 258.299 139.295 258.372 138.887 258.486C130.084 261.082 121.365 263.896 112.725 266.969C110.919 267.62 109.852 268.826 109.385 270.237C108.061 274.137 111.496 279.489 116.583 277.705C124.636 274.838 132.729 272.224 140.911 269.787C141.486 273.462 142.402 277.175 143.568 280.848C144.513 283.912 145.688 286.955 147.01 289.96C145.895 289.912 144.728 290.285 143.576 291.271C132.518 300.939 122.516 311.461 113.639 323.178C112.259 325.026 112.163 327.011 112.879 328.666C114.346 332.27 119.413 334.407 122.473 330.396C129.825 320.666 137.954 311.639 146.985 303.444C148.008 302.473 149.073 301.513 150.153 300.575C150.726 300.101 151.129 299.536 151.469 298.982C153.714 303.045 156.24 307.014 159.022 310.802C160.092 312.315 161.19 313.769 162.335 315.193C160.267 314.388 157.729 314.647 156.095 316.184C155.441 316.788 154.95 317.623 154.653 318.634C154.596 318.849 154.538 319.064 154.498 319.303C153.31 325.862 148.252 331.881 143.347 337.229C141.667 339.046 139.993 340.822 138.505 342.467C132.28 349.45 125.72 356.109 118.951 362.568C118.142 363.349 117.675 364.168 117.476 364.971C116.304 369.531 123.318 374.026 127.762 369.803C136.465 361.488 144.801 352.805 152.571 343.615C158.359 336.803 164.106 330.23 165.732 321.231C165.855 320.518 165.838 319.901 165.759 319.295C169.798 323.973 174.144 328.296 178.675 332.139C166.898 344.789 154.358 356.653 140.783 367.4C129.714 376.166 115.271 389.829 101.37 393.552C95.7536 395.08 88.6026 392.218 85.8707 386.231C84.636 383.547 86.3664 377.755 86.7353 374.774C87.6224 367.345 88.8106 359.946 89.4603 352.477C90.7367 337.902 90.9381 323.285 90.3639 308.657C90.2804 306.763 89.4855 305.441 88.3415 304.612C84.94 297.876 96.2181 289.801 90.4627 281.659C88.5886 279.008 85.5037 277.703 82.562 276.502C81.9538 276.234 81.3625 275.99 80.7714 275.746C79.0038 274.972 77.229 274.238 75.4384 273.481C73.1064 273.143 72.6 271.686 73.9603 269.12C73.9048 267.66 74.3863 265.924 74.9312 264.178C75.4623 262.511 76.097 260.844 76.3754 259.461C76.7511 257.624 76.3082 256.159 75.4093 255.085C74.5339 253.994 73.2194 253.319 71.8075 253.098C71.2999 252.479 70.6448 251.897 69.7558 251.478C66.1355 249.712 61.3581 247.789 56.2162 245.597C43.1217 240.1 27.7615 232.926 23.6608 222.29C23.5272 222.002 23.4155 221.696 23.3282 221.376C16.6147 200.382 51.8027 191.098 66.0791 186.969C96.7765 178.141 128.867 175.824 160.636 173.842ZM232.968 116.397C226.523 135.848 229.707 157.524 235.158 178.855C240.192 198.558 247.124 217.935 250.193 235.055C257.131 273.784 258.02 318.464 288.889 345.997C277.188 346.665 265.553 345.995 253.782 344.689C238.689 342.976 222.355 341.826 208.011 336.584C191.05 330.402 174.972 315.503 164.324 298.022C156.165 284.605 151.19 269.672 151.446 255.923C152.479 199.211 181.83 141.804 232.968 116.397ZM256.192 108.84C263.867 107.46 275.206 116.152 280.286 120.967C285.241 125.66 289.344 131.166 292.865 137.084C292.185 137.356 291.524 137.754 290.915 138.323C279.216 149.453 274.384 159.146 275.579 175.394C277.187 196.615 280.912 217.873 285.377 238.644C289.734 258.968 295.112 303.091 323.135 301.14C316.054 314.655 308.691 328.022 300.99 341.21C270.439 317.776 268.351 277.223 262.82 241.72C257.434 207.158 241.034 173.548 241.893 138.202C242.143 127.353 242.864 111.252 256.192 108.84ZM308.268 171.26C315.54 189.837 321.407 208.988 325.512 228.515C328.712 243.797 335.995 268.261 332.055 283.708C326.078 307.326 304.638 271.418 302.631 265.373C297.308 249.603 295.495 233.027 292.639 216.698C290.494 204.438 288.727 192.12 287.465 179.724C286.807 173.071 285.364 165.652 288.201 159.251C290.305 154.483 294.364 150.603 298.187 147.031C302.007 155.003 305.174 163.332 308.268 171.26ZM376.171 211.609C380.51 200.38 384.601 189.047 388.455 177.673C390.555 171.515 391.806 163.759 394.866 158.074C400.187 148.137 405.231 146.735 414.845 151.798C427.12 158.259 438.538 168.638 447.423 179.134C453.808 186.689 458.764 195.08 465.577 202.053C460.423 204.58 455.342 208.346 449.924 209.316C439.511 211.166 428.303 209.915 417.788 209.745C413.915 209.692 412.146 213.21 413.046 216.654C413.185 217.149 413.332 217.603 413.556 217.968C415.478 221.772 420.457 220.973 424.211 221.493C435.562 223.096 449.144 222.179 460.024 218.325C466.637 215.988 472.55 208.808 478.092 216.401C480.801 220.136 483.2 224.614 484.914 229.262C486.216 232.632 487.149 236.123 487.637 239.475C473.312 236.382 458.971 233.266 444.646 230.173C442.912 229.794 440.875 229.525 439.128 229.818C437.656 230.056 436.363 230.692 435.608 231.992C434.459 233.921 435.178 236.517 436.717 238.15C438.254 239.783 440.39 240.68 442.504 241.453C451.854 244.959 461.627 247.433 471.532 248.767C477.521 249.591 483.888 250.113 488.728 253.702C495.672 258.838 497.285 268.72 496.036 277.312C495.491 281.08 493.974 285.396 490.329 286.508C487.029 287.515 483.652 285.403 480.878 283.353C470.133 275.357 460.228 266.279 450.88 256.704C446.831 252.555 432.994 231.155 426.256 240.522C418.551 251.235 461.801 280.689 468.337 286.184C471.514 288.856 443.487 318.435 440.565 321.058C440.27 321.336 439.986 321.572 439.677 321.825C434.02 326.801 427.956 331.297 421.552 335.266C415.05 339.339 408.175 342.838 401.079 345.727C372.099 357.527 339.566 358.377 309.905 348.44C323.778 324.892 336.647 300.762 348.403 276.093C358.502 255.002 367.775 233.484 376.171 211.609ZM328.448 387.651C322.13 390.653 314.587 394.834 307.725 388.976C303.963 385.776 301.276 375.363 299.129 370.846C297.134 366.642 292.637 366.053 289.364 369.169C276.024 381.878 250.738 384.79 232.845 382.126C228.918 381.554 225.477 380.288 222.473 378.505C211.568 372.158 206.099 359.142 202.542 346.659C212.109 350.325 222.337 352.163 232.585 353.534C232.435 354.408 232.476 355.355 232.875 356.363C234.352 360.377 234.035 364.369 232.139 368.15C232.079 368.262 232.042 368.358 231.998 368.494C229.192 374.837 239.279 379.287 242.509 372.853C243.528 370.842 244.244 368.696 244.666 366.48C245.456 362.713 245.333 358.789 244.368 355.006C245.248 355.116 246.128 355.226 246.969 355.33C251.131 355.84 255.245 356.281 259.372 356.642C259.395 357.219 259.499 357.808 259.807 358.393C260.023 358.798 260.177 359.212 260.347 359.65C260.413 359.743 260.439 359.829 260.472 359.876C260.465 359.916 260.481 359.939 260.491 360.002C260.516 360.333 260.534 360.704 260.559 361.035C260.548 361.217 260.521 361.376 260.493 361.535C260.452 361.773 260.425 361.932 260.388 362.028C260.271 362.355 260.137 362.659 259.996 363.003C259.966 363.059 259.959 363.099 259.929 363.155C259.883 363.187 259.836 363.22 259.783 363.293C259.46 363.626 259.177 363.965 258.854 364.298C258.368 364.746 258.051 365.284 257.84 365.922C257.077 368.1 257.868 370.995 259.642 372.321C262.337 374.357 265.347 373.73 267.649 371.51C269.289 369.932 270.498 367.891 271.171 365.637C272.031 363.006 272.165 360.086 271.539 357.424C281.056 357.812 290.573 357.607 300.148 356.349C300.655 356.968 301.357 357.518 302.362 357.854C305.866 359.109 309.389 360.246 312.877 361.233C312.877 361.233 312.861 361.21 312.901 361.216C327.736 365.379 342.757 367.038 357.464 366.478C349.032 375.124 339.463 382.411 328.448 387.651ZM90.6655 169.694C68.9867 173.615 45.0393 178.718 26.681 191.382C24.1754 193.117 21.8886 195.013 19.8749 197.099C11.5954 205.567 8.00522 216.722 14.2178 228.619C23.3554 246.085 47.4441 253.369 64.1081 261.4C62.7042 266.124 60.9471 271.237 62.1397 275.836C63.9141 282.639 70.8624 282.994 76.0517 286.092C81.1134 289.108 80.2595 287.653 78.7406 292.215C77.9232 294.71 76.2662 296.51 75.8753 299.263C75.2534 303.712 76.5746 307.802 79.0277 311.371C79.7244 335.152 75.5974 357.883 74.5114 381.461C73.9581 393.606 79.304 405.313 92.5951 406.451C107.66 407.731 122.865 394.75 134.166 386.657C153.69 372.681 171.496 356.572 187.855 339.008C188.773 339.615 189.723 340.269 190.687 340.843C190.125 341.972 189.917 343.306 190.313 344.804C195.753 366.561 206.307 389.584 230.916 393.36C250.668 396.384 274.607 393.343 291.511 381.778C296.773 394.207 302.238 406.772 318.288 403.623C338.757 399.618 357.932 383.622 371.187 368.426C372.108 367.357 372.526 366.224 372.552 365.125C415.403 358.935 454.306 333.493 477.326 293.328C485.912 299.257 496.36 304.219 503.107 292.892C509.25 282.585 508.374 258.056 502.807 247.761C501.225 244.834 499.372 243.248 497.154 242.235C498.698 240.864 499.589 238.77 498.888 236.3C496.306 227.069 490.235 206.491 479.246 201.11C479.147 199.785 478.533 198.475 477.208 197.388C466.012 188.212 459.089 174.271 448.848 163.931C439.574 154.512 428.303 145.18 416.155 139.64C388.947 127.204 384.042 155.541 377.242 175.379C367.101 205.045 355.369 234.092 342.221 262.465C338.425 222.457 327.108 183.158 310.26 146.692C302.456 129.78 292.606 112.887 275.732 103.573C266.795 98.6245 254.869 95.1271 245.85 98.8507C245.576 98.9059 245.301 98.9593 245.019 99.0536C240.767 100.491 236.625 102.128 232.588 103.97C231.684 104.365 230.792 104.785 229.903 105.206C206.799 116.235 187.473 133.454 172.735 154.198C170.862 156.777 169.1 159.419 167.389 162.128C167.024 162.106 166.66 162.084 166.25 162.096C140.972 163.64 115.617 165.172 90.6655 169.694Z" fill="black"/>
<path d="M219.496 311.382C222.011 323.468 239.815 321.279 248.554 319.235C253.906 317.983 250.946 309.958 245.653 311.196C241.89 312.076 238.001 312.414 234.148 312.074C229.252 311.64 226.906 309.786 228.643 304.706C231.089 297.551 236.842 291.676 242.993 287.58C247.574 284.531 242.638 277.556 238.061 280.603C229.029 286.617 216.997 299.375 219.496 311.382Z" fill="black"/>
<path d="M220.993 230.178C212.933 237.726 200.779 246.373 201.39 258.847C202.004 271.383 214.801 275.81 225.376 277.029C230.824 277.656 232.298 269.238 226.822 268.607C218.455 267.644 206.211 264.045 211.142 253.128C214.29 246.157 222.175 240.68 227.604 235.595C231.6 231.853 224.962 226.461 220.993 230.178Z" fill="black"/>
<path d="M186.246 210.327C188.202 221.389 198.054 228.099 208.926 227.8C214.437 227.647 213.665 219.136 208.188 219.286C200.478 219.497 193.821 213.572 194.516 205.583C195.211 197.603 202.584 193.524 208.846 189.937C213.613 187.204 208.65 180.245 203.913 182.959C193.601 188.866 183.922 197.198 186.246 210.327Z" fill="black"/>
<path d="M195.899 271.891C188.644 278.314 179.51 287.921 181.207 298.524C182.884 309.012 192.915 314.109 202.078 316.815C207.349 318.371 208.745 309.935 203.524 308.394C197.533 306.624 188.736 302.733 189.527 294.979C190.147 288.885 196.516 282.687 200.83 278.868C204.903 275.263 200.016 268.244 195.899 271.891Z" fill="black"/>
<path d="M173.804 221.504C167.972 228.239 164 237.882 165.648 246.906C167.111 254.923 175.988 261.086 183.292 255.454C187.634 252.105 182.725 245.111 178.359 248.476C173.285 252.388 174.004 239.995 174.528 237.861C175.547 233.71 177.636 230.13 180.415 226.922C184.012 222.766 177.409 217.341 173.804 221.504Z" fill="black"/>
</g>
<defs>
<clipPath id="clip0_103_2">
<rect width="512" height="512" fill="white"/>
</clipPath>
</defs>
</svg>
