<svg width="181" height="115" viewBox="0 0 181 115" fill="none" xmlns="http://www.w3.org/2000/svg">
<g clip-path="url(#clip0_6_2)">
<g clip-path="url(#clip1_6_2)">
<path d="M122.835 31.4424C121.512 33.0097 121.382 35.2624 123.313 36.3596C124.272 36.9047 124.978 35.3405 124.023 34.7976C122.541 33.9558 124.428 32.1264 125.14 31.6999C126.227 31.049 127.687 30.8414 128.728 31.6371C129.652 32.3439 130.488 33.7604 129.805 34.8673C129.159 35.9139 127.783 36.0816 126.675 36.1776C125.573 36.273 125.723 37.982 126.823 37.8868C128.811 37.7146 131.19 36.9862 131.72 34.7735C132.207 32.7428 130.532 30.2252 128.603 29.6023C126.573 28.947 124.174 29.8572 122.835 31.4424Z" fill="#030404"/>
<path d="M126.414 32.8942C126.363 33.2905 126.547 33.6037 126.858 33.7782C126.511 33.9144 126.244 34.2574 126.295 34.6482C126.353 35.0964 126.748 35.4861 127.223 35.4287C128.012 35.3339 128.684 34.7037 128.718 33.8899C128.754 33.0528 128.189 32.405 127.404 32.1939C126.969 32.0771 126.469 32.4636 126.414 32.8942Z" fill="#030404"/>
<path d="M90.3839 14.1888C90.073 14.7816 89.7882 15.3817 89.523 15.9947C89.427 15.9628 89.3219 15.9479 89.2042 15.9522C84.8106 16.1854 80.5772 17.6706 76.1511 17.5012C75.0482 17.4566 75.2102 19.1642 76.2979 19.2097C80.5559 19.3715 84.6331 18.0071 88.8496 17.6943C88.4013 18.9619 88.049 20.2614 87.7922 21.5772C87.6901 21.5442 87.5841 21.5354 87.4818 21.5392C87.3232 21.5304 87.1672 21.5622 87.0287 21.6338C86.8388 21.5211 86.6057 21.4811 86.3345 21.573C84.2232 22.2934 82.077 22.8234 79.8682 23.1608C79.2676 23.2546 79.0426 23.8129 79.1456 24.2707C79.2295 24.6419 79.5279 24.9453 80.0174 24.8726C82.3659 24.5099 84.6708 23.9519 86.9188 23.1871C86.9258 23.1821 86.9328 23.1772 86.9389 23.1783C87.0784 23.2791 87.2445 23.3506 87.44 23.3597C87.4613 23.3601 87.4778 23.3538 87.4958 23.357C87.4103 24.0161 87.3521 24.6767 87.3215 25.3391C87.2905 25.86 87.281 26.3815 87.287 26.9025C87.2312 26.9052 87.1707 26.9163 87.1093 26.9334C85.7838 27.3243 84.471 27.7479 83.1701 28.2107C82.8981 28.3087 82.7375 28.4902 82.6672 28.7027C82.4678 29.29 82.985 30.0958 83.7509 29.8272C84.9635 29.3956 86.182 29.0019 87.414 28.6349C87.5006 29.1882 87.6385 29.7474 87.8141 30.3003C87.9564 30.7617 88.1332 31.2199 88.3323 31.6724C88.1644 31.6651 87.9887 31.7212 87.8153 31.8697C86.1502 33.3254 84.6443 34.9097 83.3076 36.674C83.0999 36.9522 83.0854 37.2511 83.1933 37.5003C83.4141 38.0429 84.1771 38.3646 84.6378 37.7607C85.7448 36.2957 86.9688 34.9365 88.3285 33.7025C88.4826 33.5565 88.6429 33.4119 88.8056 33.2706C88.8917 33.1992 88.9524 33.1142 89.0037 33.0308C89.3416 33.6426 89.722 34.2401 90.141 34.8105C90.302 35.0383 90.4673 35.2573 90.6398 35.4716C90.3284 35.3505 89.9463 35.3894 89.7003 35.6209C89.6018 35.7118 89.5278 35.8375 89.4831 35.9897C89.4745 36.0221 89.4658 36.0545 89.4598 36.0905C89.2808 37.078 88.5193 37.9843 87.7808 38.7895C87.5278 39.0631 87.2757 39.3306 87.0517 39.5782C86.1144 40.6296 85.1268 41.6322 84.1075 42.6048C83.9858 42.7223 83.9154 42.8456 83.8854 42.9666C83.709 43.6532 84.7651 44.3299 85.4342 43.6941C86.7445 42.4422 87.9997 41.1348 89.1696 39.7511C90.0411 38.7255 90.9064 37.7357 91.1512 36.3808C91.1698 36.2733 91.1672 36.1805 91.1552 36.0892C91.7634 36.7936 92.4178 37.4445 93.1 38.0231C91.3268 39.9278 89.4386 41.7142 87.3947 43.3323C85.7281 44.6522 83.5534 46.7094 81.4604 47.2699C80.6147 47.5001 79.538 47.0691 79.1267 46.1677C78.9408 45.7636 79.2013 44.8915 79.2569 44.4426C79.3904 43.324 79.5694 42.21 79.6672 41.0854C79.8594 38.8908 79.8897 36.6901 79.8032 34.4876C79.7907 34.2024 79.671 34.0033 79.4987 33.8785C78.9866 32.8643 80.6847 31.6485 79.8181 30.4226C79.5359 30.0234 79.0714 29.8269 78.6285 29.6461C78.5369 29.6057 78.4479 29.5689 78.3589 29.5321C78.0928 29.4157 77.8255 29.3051 77.5559 29.1911C77.2048 29.1402 77.1286 28.9209 77.3334 28.5346C77.325 28.3148 77.3975 28.0533 77.4796 27.7904C77.5595 27.5395 77.6551 27.2884 77.697 27.0802C77.7536 26.8037 77.6869 26.583 77.5516 26.4213C77.4197 26.2571 77.2218 26.1554 77.0092 26.1221C76.9328 26.0289 76.8342 25.9413 76.7003 25.8783C76.1552 25.6124 75.4359 25.3228 74.6617 24.9928C72.6901 24.1651 70.3773 23.0849 69.7599 21.4835C69.7398 21.4402 69.723 21.3941 69.7098 21.3458C68.699 18.1848 73.9972 16.787 76.1467 16.1652C80.7688 14.8361 85.6005 14.4872 90.3839 14.1888ZM101.275 5.53934C100.304 8.46809 100.784 11.7319 101.604 14.9435C102.362 17.9102 103.406 20.8278 103.868 23.4054C104.913 29.2367 105.047 35.9641 109.695 40.1097C107.933 40.2102 106.181 40.1094 104.409 39.9128C102.136 39.6548 99.6768 39.4817 97.5171 38.6924C94.9632 37.7616 92.5424 35.5183 90.9392 32.8862C89.7107 30.8661 88.9616 28.6177 89.0002 26.5475C89.1558 18.0085 93.5751 9.36483 101.275 5.53934ZM104.772 4.40159C105.927 4.19382 107.634 5.5025 108.399 6.22751C109.145 6.93413 109.763 7.76316 110.293 8.65413C110.191 8.69521 110.091 8.75511 110 8.84079C108.238 10.5165 107.511 11.9761 107.691 14.4225C107.933 17.6176 108.494 20.8183 109.166 23.9458C109.822 27.006 110.632 33.6495 114.851 33.3557C113.785 35.3907 112.676 37.4033 111.517 39.3889C106.917 35.8606 106.602 29.7546 105.77 24.4089C104.959 19.2051 102.489 14.1444 102.619 8.82248C102.656 7.18897 102.765 4.76478 104.772 4.40159ZM112.613 13.8C113.707 16.597 114.591 19.4807 115.209 22.4207C115.691 24.7217 116.787 28.4052 116.194 30.7309C115.294 34.287 112.066 28.8805 111.764 27.9703C110.962 25.596 110.689 23.1 110.259 20.6415C109.936 18.7956 109.67 16.9408 109.48 15.0744C109.381 14.0726 109.164 12.9555 109.591 11.9919C109.908 11.274 110.519 10.6897 111.095 10.1519C111.67 11.3522 112.147 12.6062 112.613 13.8ZM122.836 19.8752C123.49 18.1845 124.106 16.4782 124.686 14.7655C125.002 13.8383 125.191 12.6706 125.651 11.8147C126.453 10.3184 127.212 10.1074 128.66 10.8697C130.508 11.8424 132.227 13.4052 133.565 14.9856C134.526 16.1231 135.272 17.3864 136.298 18.4363C135.522 18.8169 134.757 19.384 133.941 19.53C132.373 19.8085 130.686 19.6202 129.103 19.5946C128.52 19.5866 128.253 20.1163 128.389 20.6349C128.41 20.7094 128.432 20.7778 128.466 20.8327C128.755 21.4054 129.505 21.2851 130.07 21.3635C131.779 21.6048 133.824 21.4668 135.462 20.8865C136.458 20.5345 137.348 19.4535 138.182 20.5967C138.59 21.1591 138.952 21.8334 139.21 22.5332C139.406 23.0406 139.546 23.5663 139.62 24.071C137.463 23.6053 135.303 23.1361 133.147 22.6703C132.886 22.6133 132.579 22.5729 132.316 22.6169C132.094 22.6528 131.899 22.7485 131.786 22.9443C131.613 23.2347 131.721 23.6256 131.953 23.8714C132.184 24.1174 132.506 24.2524 132.824 24.3688C134.232 24.8966 135.703 25.2692 137.195 25.47C138.097 25.5941 139.055 25.6726 139.784 26.2131C140.83 26.9864 141.072 28.4743 140.884 29.7679C140.802 30.3353 140.574 30.9852 140.025 31.1526C139.528 31.3043 139.02 30.9862 138.602 30.6775C136.984 29.4736 135.493 28.1068 134.085 26.6651C133.476 26.0404 131.392 22.8182 130.378 24.2286C129.218 25.8416 135.73 30.2765 136.714 31.1039C137.192 31.5062 132.972 35.9597 132.532 36.3548C132.488 36.3965 132.445 36.4321 132.398 36.4702C131.547 37.2194 130.634 37.8964 129.669 38.4939C128.69 39.1073 127.655 39.6341 126.587 40.069C122.223 41.8458 117.325 41.9737 112.859 40.4776C114.948 36.9319 116.885 33.2988 118.656 29.5844C120.176 26.4088 121.572 23.1689 122.836 19.8752ZM115.651 46.3815C114.7 46.8335 113.564 47.463 112.531 46.581C111.964 46.0992 111.56 44.5313 111.237 43.8512C110.936 43.2181 110.259 43.1296 109.766 43.5987C107.758 45.5122 103.95 45.9506 101.256 45.5495C100.665 45.4634 100.147 45.2729 99.6946 45.0044C98.0526 44.0487 97.2292 42.089 96.6935 40.2094C98.1341 40.7614 99.6742 41.0381 101.217 41.2446C101.194 41.3761 101.201 41.5187 101.261 41.6705C101.483 42.2748 101.435 42.8759 101.15 43.4453C101.141 43.4622 101.135 43.4766 101.129 43.497C100.706 44.4521 102.225 45.1221 102.711 44.1533C102.865 43.8505 102.973 43.5275 103.036 43.1938C103.155 42.6265 103.136 42.0357 102.991 41.4662C103.124 41.4828 103.256 41.4994 103.383 41.5149C104.01 41.5918 104.629 41.6582 105.25 41.7126C105.254 41.7993 105.269 41.8881 105.316 41.9761C105.348 42.0371 105.372 42.0995 105.397 42.1654C105.407 42.1794 105.411 42.1924 105.416 42.1994C105.415 42.2054 105.417 42.2089 105.419 42.2184C105.423 42.2683 105.425 42.3241 105.429 42.374C105.427 42.4014 105.423 42.4253 105.419 42.4492C105.413 42.4851 105.409 42.509 105.403 42.5234C105.386 42.5727 105.366 42.6185 105.344 42.6702C105.34 42.6787 105.339 42.6847 105.334 42.6931C105.327 42.698 105.32 42.703 105.312 42.7139C105.264 42.764 105.221 42.8152 105.172 42.8653C105.099 42.9327 105.052 43.0138 105.02 43.1098C104.905 43.4378 105.024 43.8736 105.291 44.0733C105.697 44.3799 106.15 44.2854 106.497 43.9511C106.744 43.7135 106.926 43.4063 107.027 43.0668C107.156 42.6707 107.177 42.231 107.082 41.8303C108.515 41.8887 109.948 41.8578 111.39 41.6684C111.466 41.7616 111.572 41.8444 111.723 41.8949C112.251 42.084 112.781 42.2551 113.307 42.4037C113.307 42.4037 113.304 42.4002 113.31 42.4012C115.544 43.028 117.805 43.2778 120.02 43.1935C118.75 44.4953 117.309 45.5925 115.651 46.3815ZM79.8486 13.5642C76.5845 14.1545 72.9788 14.9229 70.2146 16.8297C69.8374 17.0909 69.4931 17.3765 69.1899 17.6905C67.9432 18.9656 67.4027 20.6451 68.3381 22.4364C69.7139 25.0662 73.3409 26.163 75.85 27.3721C75.6386 28.0835 75.374 28.8533 75.5536 29.5457C75.8207 30.57 76.8669 30.6235 77.6483 31.0899C78.4104 31.5441 78.2818 31.325 78.0531 32.0119C77.9301 32.3875 77.6806 32.6586 77.6217 33.0732C77.5281 33.743 77.727 34.3587 78.0964 34.8961C78.2013 38.4768 77.5799 41.8993 77.4164 45.4495C77.333 47.2781 78.138 49.0408 80.1392 49.2122C82.4075 49.4048 84.6969 47.4504 86.3983 46.2318C89.338 44.1275 92.019 41.7019 94.4823 39.0574C94.6204 39.1488 94.7635 39.2472 94.9086 39.3337C94.8241 39.5037 94.7927 39.7045 94.8524 39.9301C95.6713 43.206 97.2605 46.6725 100.966 47.2411C103.94 47.6964 107.544 47.2385 110.089 45.4972C110.882 47.3686 111.705 49.2605 114.121 48.7864C117.203 48.1833 120.09 45.7748 122.086 43.4869C122.225 43.3259 122.288 43.1553 122.292 42.9897C128.744 42.0578 134.601 38.227 138.067 32.1795C139.36 33.0722 140.933 33.8193 141.949 32.1138C142.874 30.5619 142.742 26.8687 141.904 25.3186C141.666 24.8778 141.387 24.639 141.053 24.4865C141.285 24.2801 141.419 23.9647 141.314 23.5929C140.925 22.2031 140.011 19.1047 138.356 18.2944C138.341 18.0949 138.249 17.8976 138.049 17.734C136.364 16.3524 135.321 14.2534 133.779 12.6965C132.383 11.2783 130.686 9.87312 128.857 9.03899C124.76 7.16654 124.022 11.4332 122.998 14.4202C121.471 18.887 119.704 23.2604 117.725 27.5324C117.153 21.5085 115.449 15.5915 112.912 10.1008C111.737 7.55446 110.254 5.01093 107.714 3.6085C106.368 2.86345 104.572 2.33685 103.214 2.8975C103.173 2.90581 103.132 2.91385 103.089 2.92805C102.449 3.14442 101.825 3.39096 101.218 3.66835C101.081 3.72783 100.947 3.79105 100.813 3.85435C97.3345 5.51503 94.4248 8.10759 92.2057 11.2311C91.9237 11.6194 91.6584 12.0172 91.4006 12.4251C91.3458 12.4217 91.2909 12.4184 91.2292 12.4203C87.4232 12.6527 83.6055 12.8834 79.8486 13.5642Z" fill="#030404"/>
<path d="M99.2464 34.8977C99.6251 36.7174 102.306 36.3878 103.622 36.0801C104.427 35.8916 103.982 34.6832 103.185 34.8697C102.618 35.0022 102.033 35.0532 101.452 35.0018C100.715 34.9366 100.362 34.6574 100.624 33.8925C100.992 32.8152 101.858 31.9306 102.784 31.3139C103.474 30.8548 102.731 29.8046 102.042 30.2634C100.682 31.1689 98.8701 33.0898 99.2464 34.8977Z" fill="#030404"/>
<path d="M99.4716 22.6713C98.2581 23.8078 96.4282 25.1097 96.5202 26.9879C96.6125 28.8754 98.5394 29.542 100.132 29.7255C100.952 29.8199 101.174 28.5524 100.349 28.4574C99.0896 28.3125 97.2459 27.7706 97.9885 26.1268C98.4624 25.0772 99.6497 24.2525 100.467 23.4869C101.069 22.9235 100.069 22.1115 99.4716 22.6713Z" fill="#030404"/>
<path d="M94.2399 19.6822C94.5345 21.3479 96.0179 22.3581 97.6548 22.3132C98.4846 22.2901 98.3684 21.0085 97.5437 21.0312C96.3828 21.063 95.3805 20.1708 95.4851 18.968C95.5898 17.7664 96.7 17.1522 97.6428 16.6122C98.3606 16.2007 97.6133 15.1529 96.9001 15.5615C95.3474 16.4509 93.8901 17.7055 94.2399 19.6822Z" fill="#030404"/>
<path d="M95.6934 28.9519C94.601 29.9189 93.2258 31.3653 93.4813 32.9619C93.7338 34.541 95.2441 35.3084 96.6239 35.7159C97.4174 35.9502 97.6276 34.68 96.8416 34.4479C95.9395 34.1815 94.6149 33.5957 94.734 32.4281C94.8274 31.5106 95.7864 30.5774 96.4359 30.0023C97.0491 29.4595 96.3133 28.4027 95.6934 28.9519Z" fill="#030404"/>
<path d="M92.3665 21.3653C91.4885 22.3793 90.8905 23.8312 91.1385 25.1899C91.3589 26.397 92.6954 27.3249 93.7951 26.477C94.4489 25.9727 93.7097 24.9196 93.0524 25.4263C92.2884 26.0153 92.3967 24.1494 92.4755 23.828C92.6291 23.203 92.9436 22.664 93.362 22.1809C93.9036 21.5553 92.9094 20.7383 92.3665 21.3653Z" fill="#030404"/>
<path d="M14.592 52.7157V42.7957H5.504V52.7157H0V58.7957H5.504V78.3157C5.504 79.9797 5.76 81.3237 6.336 82.3477C6.912 83.3717 7.68 84.1397 8.64 84.7157C9.6 85.2917 10.688 85.6117 11.968 85.8677C13.184 86.0597 14.528 86.1237 15.936 86.1237C16.832 86.1237 17.728 86.1237 18.688 86.0597C19.648 85.9957 20.48 85.9317 21.248 85.8037V78.7637C20.8 78.8277 20.352 78.8917 19.904 78.9557C19.456 79.0197 18.944 79.0197 18.432 79.0197C16.896 79.0197 15.872 78.7637 15.36 78.2517C14.848 77.7397 14.592 76.7157 14.592 75.1797V58.7957H21.248V52.7157H14.592Z" fill="black"/>
<path d="M23.616 62.8917C23.744 60.7797 24.256 58.9877 25.216 57.5797C26.176 56.1717 27.328 55.0197 28.8 54.1877C30.272 53.3557 31.872 52.7157 33.728 52.3317C35.52 52.0117 37.312 51.8197 39.168 51.8197C40.832 51.8197 42.496 51.9477 44.224 52.1397C45.952 52.3957 47.488 52.8437 48.896 53.5477C50.304 54.2517 51.456 55.2117 52.352 56.3637C53.248 57.6437 53.696 59.2437 53.696 61.2277V78.4437C53.696 79.9157 53.76 81.3877 53.952 82.7317C54.144 84.0757 54.4 85.0997 54.848 85.8037H45.632C45.44 85.2917 45.312 84.7797 45.248 84.2037C45.12 83.6917 45.056 83.1797 44.992 82.6037C43.52 84.0757 41.856 85.1637 39.872 85.7397C37.888 86.3157 35.904 86.6357 33.856 86.6357C32.256 86.6357 30.784 86.4437 29.44 86.0597C28.096 85.6757 26.88 85.0997 25.856 84.2677C24.832 83.4357 24.064 82.4117 23.488 81.1957C22.912 79.9797 22.592 78.5077 22.592 76.7797C22.592 74.9237 22.912 73.3237 23.616 72.1077C24.256 70.8917 25.088 69.9317 26.176 69.2277C27.2 68.5237 28.416 67.9477 29.76 67.5637C31.104 67.2437 32.448 66.9237 33.792 66.7317C35.136 66.5397 36.48 66.3477 37.824 66.2197C39.168 66.0917 40.32 65.8997 41.344 65.6437C42.368 65.3877 43.2 65.0037 43.776 64.4917C44.352 64.0437 44.672 63.3397 44.608 62.3797C44.608 61.4197 44.48 60.5877 44.16 60.0117C43.84 59.4357 43.392 58.9877 42.88 58.6677C42.304 58.4117 41.728 58.1557 41.024 58.0277C40.32 57.9637 39.552 57.8997 38.72 57.8997C36.928 57.8997 35.52 58.2837 34.496 59.0517C33.472 59.8197 32.896 61.0997 32.704 62.8917H23.616ZM44.608 69.6117C44.224 69.9317 43.776 70.2517 43.2 70.3797C42.624 70.5717 41.984 70.7637 41.344 70.8917C40.64 71.0197 39.936 71.1477 39.232 71.2117C38.528 71.2757 37.76 71.4037 37.056 71.5317C36.352 71.6597 35.712 71.8517 35.072 72.0437C34.368 72.2357 33.792 72.5557 33.344 72.8757C32.832 73.2597 32.448 73.7077 32.128 74.2837C31.808 74.8597 31.68 75.5637 31.68 76.3957C31.68 77.2277 31.808 77.8677 32.128 78.4437C32.448 79.0197 32.832 79.4677 33.344 79.7237C33.856 80.0437 34.432 80.2997 35.136 80.4277C35.84 80.5557 36.544 80.6197 37.248 80.6197C39.04 80.6197 40.448 80.2997 41.408 79.7237C42.368 79.1477 43.136 78.3797 43.584 77.5477C44.032 76.7797 44.352 75.8837 44.48 75.0517C44.544 74.2197 44.608 73.5157 44.608 73.0037V69.6117Z" fill="black"/>
<path d="M67.84 47.5957V40.1077H58.752V47.5957H67.84ZM58.752 52.7157V85.8037H67.84V52.7157H58.752Z" fill="black"/>
<path d="M89.088 89.8997L102.912 52.7157H93.504L86.272 75.3717H86.144L78.656 52.7157H68.992L80.576 83.7557C80.832 84.3957 80.96 85.0997 80.96 85.8037C80.96 86.7637 80.704 87.6597 80.128 88.4917C79.552 89.3237 78.656 89.7717 77.44 89.8997C76.544 89.9637 75.648 89.8997 74.752 89.8357C73.856 89.7717 72.96 89.6437 72.128 89.5797V97.0677C73.088 97.1317 73.984 97.2597 74.944 97.3237C75.84 97.3877 76.736 97.3877 77.696 97.3877C80.832 97.3877 83.264 96.8117 84.992 95.6597C86.72 94.5077 88.128 92.5877 89.088 89.8997Z" fill="black"/>
<path d="M102.72 62.8917C102.848 60.7797 103.36 58.9877 104.32 57.5797C105.28 56.1717 106.432 55.0197 107.904 54.1877C109.376 53.3557 110.976 52.7157 112.832 52.3317C114.624 52.0117 116.416 51.8197 118.272 51.8197C119.936 51.8197 121.6 51.9477 123.328 52.1397C125.056 52.3957 126.592 52.8437 128 53.5477C129.408 54.2517 130.56 55.2117 131.456 56.3637C132.352 57.6437 132.8 59.2437 132.8 61.2277V78.4437C132.8 79.9157 132.864 81.3877 133.056 82.7317C133.248 84.0757 133.504 85.0997 133.952 85.8037H124.736C124.544 85.2917 124.416 84.7797 124.352 84.2037C124.224 83.6917 124.16 83.1797 124.096 82.6037C122.624 84.0757 120.96 85.1637 118.976 85.7397C116.992 86.3157 115.008 86.6357 112.96 86.6357C111.36 86.6357 109.888 86.4437 108.544 86.0597C107.2 85.6757 105.984 85.0997 104.96 84.2677C103.936 83.4357 103.168 82.4117 102.592 81.1957C102.016 79.9797 101.696 78.5077 101.696 76.7797C101.696 74.9237 102.016 73.3237 102.72 72.1077C103.36 70.8917 104.192 69.9317 105.28 69.2277C106.304 68.5237 107.52 67.9477 108.864 67.5637C110.208 67.2437 111.552 66.9237 112.896 66.7317C114.24 66.5397 115.584 66.3477 116.928 66.2197C118.272 66.0917 119.424 65.8997 120.448 65.6437C121.472 65.3877 122.304 65.0037 122.88 64.4917C123.456 64.0437 123.776 63.3397 123.712 62.3797C123.712 61.4197 123.584 60.5877 123.264 60.0117C122.944 59.4357 122.496 58.9877 121.984 58.6677C121.408 58.4117 120.832 58.1557 120.128 58.0277C119.424 57.9637 118.656 57.8997 117.824 57.8997C116.032 57.8997 114.624 58.2837 113.6 59.0517C112.576 59.8197 112 61.0997 111.808 62.8917H102.72ZM123.712 69.6117C123.328 69.9317 122.88 70.2517 122.304 70.3797C121.728 70.5717 121.088 70.7637 120.448 70.8917C119.744 71.0197 119.04 71.1477 118.336 71.2117C117.632 71.2757 116.864 71.4037 116.16 71.5317C115.456 71.6597 114.816 71.8517 114.176 72.0437C113.472 72.2357 112.896 72.5557 112.448 72.8757C111.936 73.2597 111.552 73.7077 111.232 74.2837C110.912 74.8597 110.784 75.5637 110.784 76.3957C110.784 77.2277 110.912 77.8677 111.232 78.4437C111.552 79.0197 111.936 79.4677 112.448 79.7237C112.96 80.0437 113.536 80.2997 114.24 80.4277C114.944 80.5557 115.648 80.6197 116.352 80.6197C118.144 80.6197 119.552 80.2997 120.512 79.7237C121.472 79.1477 122.24 78.3797 122.688 77.5477C123.136 76.7797 123.456 75.8837 123.584 75.0517C123.648 74.2197 123.712 73.5157 123.712 73.0037V69.6117Z" fill="black"/>
<path d="M137.792 40.1077V85.8037H146.88V74.4117L150.4 71.0197L159.488 85.8037H170.496L156.608 64.8757L169.088 52.7157H158.336L146.88 64.6197V40.1077H137.792Z" fill="black"/>
<path d="M180.8 47.5957V40.1077H171.712V47.5957H180.8ZM171.712 52.7157V85.8037H180.8V52.7157H171.712Z" fill="black"/>
<path d="M132.48 100.266V108.282C132.48 108.762 132.36 108.834 131.592 108.834C130.92 108.834 130.152 108.786 129.528 108.69C129.96 109.722 130.104 110.418 130.2 111.546C130.968 111.57 131.328 111.594 131.688 111.594C134.256 111.594 135.096 110.946 135.096 109.026V93.0178C135.096 91.7218 135.12 91.0258 135.216 90.1138C134.448 90.2098 133.992 90.2338 132.6 90.2338H126.24C124.896 90.2338 124.416 90.2098 123.576 90.1138C123.648 91.0018 123.696 92.1298 123.696 93.0178V93.2818C123.672 94.8418 123.648 96.6658 123.648 98.7778C123.6 103.914 123.456 105.906 122.88 107.97C122.832 107.826 122.808 107.706 122.784 107.634C122.76 107.49 122.712 107.37 122.688 107.322C122.616 107.082 122.592 107.01 122.208 106.05L120.768 106.482C121.176 107.682 121.344 108.282 121.536 109.314L122.616 108.762C122.424 109.17 122.352 109.338 122.04 109.866C123.024 110.418 123.576 110.922 124.392 111.93C125.208 110.178 125.616 108.666 125.88 106.242C126.096 104.442 126.144 103.698 126.192 100.266H132.48ZM126.24 94.2178V92.9218H128.088V94.2178H126.24ZM126.216 96.5698H128.088V97.9378H126.216V96.5698ZM132.48 97.9378H130.512V96.5698H132.48V97.9378ZM132.48 94.2178H130.512V92.9218H132.48V94.2178ZM121.776 90.7138C121.464 90.7858 121.224 90.8098 120.648 90.8098H118.8C118.968 90.3778 119.04 90.1618 119.04 90.1618C119.232 89.7058 119.232 89.7058 119.28 89.5858L116.328 89.1778C115.8 91.5058 114.6 93.8338 112.992 95.7058C113.544 96.1378 113.784 96.4018 114.384 97.1218V103.41C114.384 104.706 114.384 105.042 114.312 105.594C115.152 105.57 115.536 105.57 116.592 105.57H120.576C121.896 105.57 122.04 105.57 122.856 105.594C122.808 104.994 122.808 104.658 122.808 103.218V97.4578C122.808 96.4018 122.832 95.6818 122.88 95.0818C122.376 95.1298 121.992 95.1538 121.104 95.1538C121.368 94.7218 121.824 93.8818 122.112 93.2578C122.376 92.7058 122.568 92.3458 122.712 92.1298L121.776 90.7138ZM116.664 95.1538C117.048 94.5298 117.192 94.2658 117.624 93.3778H119.304C118.968 94.1698 118.728 94.6738 118.392 95.1538H116.664ZM116.664 97.5298H117.72V99.1618H116.664V97.5298ZM116.664 101.322H117.72V103.17H116.664V101.322ZM119.592 97.5298H120.672V99.1618H119.592V97.5298ZM119.592 101.322H120.672V103.17H119.592V101.322ZM114.456 105.834C114.12 107.73 113.784 108.738 112.92 110.346L114.744 112.074C115.608 110.274 115.992 108.906 116.304 106.554L114.456 105.834ZM116.424 106.602C116.544 107.562 116.664 109.65 116.664 110.874V111.714L118.728 111.234C118.608 109.386 118.392 107.778 118.104 106.266L116.424 106.602ZM131.688 102.666C131.688 101.97 131.712 101.49 131.76 101.058C131.424 101.106 130.968 101.13 130.2 101.13H128.088C127.392 101.13 126.96 101.106 126.504 101.058C126.552 101.538 126.576 102.018 126.576 102.738V108.09C126.576 108.954 126.552 109.458 126.504 109.89H128.76V108.33H130.2C130.8 108.33 131.376 108.354 131.736 108.402C131.688 108.042 131.688 107.85 131.688 106.986V102.666ZM128.616 103.53H129.672V105.786H128.616V103.53ZM118.656 106.578C118.992 107.922 119.232 109.29 119.376 111.018L121.128 110.49C120.864 108.786 120.6 107.514 120.24 106.218L118.656 106.578Z" fill="black"/>
<path d="M148.072 103.65C147.952 105.354 147.568 106.362 146.656 107.346C145.864 108.21 144.808 108.81 143.2 109.338C143.992 110.106 144.448 110.754 144.976 111.93C147.904 110.682 149.584 109.122 150.376 106.914C150.712 105.978 150.832 105.426 151 103.65H152.512V109.482C152.512 111.066 153.232 111.498 155.968 111.498C159.52 111.498 159.976 110.994 160.144 106.818C158.992 106.506 158.392 106.266 157.528 105.762C157.528 107.178 157.456 107.97 157.336 108.306C157.24 108.618 157.024 108.714 156.4 108.714C155.56 108.714 155.416 108.642 155.416 108.234V103.65H157.048C158.104 103.65 158.848 103.698 159.616 103.794V100.842C158.896 100.938 158.416 100.962 157.264 100.962V99.2818H157.984C158.824 99.2818 159.28 99.3058 159.952 99.4018V96.4738C159.28 96.5698 158.824 96.5938 157.984 96.5938H157.264V95.9458C157.264 95.5378 157.288 95.2978 157.36 94.9618H154.432C154.504 95.3218 154.504 95.4898 154.504 95.9458V96.5938H149.968V95.9218C149.968 95.4658 149.992 95.2498 150.04 94.9618H147.208C147.28 95.3458 147.304 95.5378 147.304 95.9698V96.5938H146.896C146.536 96.5938 146.344 96.5938 145.96 96.5698C146.56 95.7778 146.56 95.7778 146.992 95.2258L145.816 94.2178C146.416 94.1458 147.376 94.0978 148.216 94.0978H150.856V94.6738C150.856 95.3218 150.832 95.5858 150.784 95.9938H153.688C153.616 95.6098 153.616 95.3698 153.616 94.6498V94.0978H156.832C157.624 94.0978 158.416 94.1458 159.136 94.2178V91.2658C158.44 91.3618 157.72 91.4098 156.736 91.4098H153.664V90.9298C153.664 90.2818 153.688 89.8978 153.784 89.4658H150.688C150.784 89.9458 150.808 90.2818 150.808 90.9058V91.4098H148.216C147.16 91.4098 146.56 91.3858 145.792 91.2658V94.1938L144.904 93.4498C144.664 94.0498 144.4 94.5058 143.896 95.2738C143.92 94.7698 143.92 94.6498 143.92 94.3138C143.944 90.4018 143.944 90.4018 144.04 89.5858H140.824C140.968 90.5698 140.992 91.0978 140.992 93.3778C140.992 99.0898 140.728 102.282 140.104 104.562C139.528 106.53 138.664 107.994 137.296 109.29C138.112 109.986 138.592 110.586 139.384 111.762C141.016 110.058 142.024 108.33 142.72 106.146C143.272 106.986 143.608 107.394 144.64 108.45C145.12 107.226 145.432 106.674 146.152 105.594C144.904 104.658 144.256 103.986 143.44 102.858C143.608 101.73 143.68 100.842 143.776 99.0658C144.424 98.4178 144.736 98.0818 145.072 97.6738V99.3778C145.792 99.3058 146.152 99.2818 146.896 99.2818H147.304V100.962H147.016C146.056 100.962 145.768 100.938 145.216 100.866V103.77C145.792 103.674 146.488 103.65 147.64 103.65H148.072ZM149.968 100.962V99.2818H154.504V100.962H149.968ZM139.624 101.562C140.056 99.5458 140.272 97.3618 140.296 94.2898L138.112 94.0498V94.5058C138.112 95.3938 138.064 96.3058 137.968 97.4338C137.872 98.7778 137.776 99.3298 137.464 100.41L139.624 101.562Z" fill="black"/>
<path d="M162.6 95.9458C163.008 95.9218 163.2 95.9218 163.56 95.9218C167.4 95.8738 168.192 95.8498 170.664 95.6098C170.784 95.8978 170.832 95.9698 171.048 96.4498C171.216 96.8098 171.288 96.9538 171.432 97.2178C169.08 97.5298 167.088 97.6498 164.568 97.6498C163.32 97.6498 162.936 97.6258 162.264 97.5298L162.384 100.602C162.816 100.554 163.008 100.554 163.44 100.53C168.144 100.386 170.496 100.242 172.704 99.9298C172.848 100.146 172.848 100.146 173.016 100.434C173.4 101.058 173.424 101.106 173.712 101.514C174 101.922 174.048 101.97 174.192 102.138C173.016 101.874 171.792 101.754 170.304 101.754C168.264 101.754 166.752 102.018 165.408 102.618C163.728 103.338 162.648 104.826 162.648 106.41C162.648 107.346 162.984 108.282 163.56 108.978C164.688 110.394 167.04 111.114 170.424 111.114C172.632 111.114 174.84 110.85 176.976 110.322C177.912 110.082 177.96 110.082 178.608 109.962L178.104 106.482C176.472 107.322 173.088 108.018 170.568 108.018C169.752 108.018 168.672 107.922 168.096 107.802C167.016 107.538 166.464 107.082 166.464 106.386C166.464 105.186 168.096 104.514 171.096 104.514C173.304 104.514 174.816 104.802 176.376 105.546L179.184 103.89C177.528 101.922 177.216 101.49 176.016 99.4738C176.496 99.3778 176.592 99.3538 177.696 99.1378C179.328 98.7778 180.288 98.5858 180.6 98.5378L180.312 95.4658C179.016 95.9458 177.6 96.2818 174.696 96.8098C174.312 96.0178 174.288 95.9698 173.952 95.2018C174.72 95.1058 176.832 94.6738 179.664 94.0738L179.376 91.0738C177.744 91.6258 175.296 92.1298 172.896 92.4658C172.32 91.0258 172.128 90.4018 172.032 89.7538L168.456 90.2338C168.648 90.5698 168.72 90.7378 168.96 91.3378C169.128 91.7458 169.224 91.9858 169.272 92.0578C169.512 92.6338 169.512 92.6338 169.584 92.8258C168.624 92.9458 166.392 93.0418 165 93.0418C163.992 93.0418 163.176 93.0178 162.432 92.9458L162.6 95.9458Z" fill="black"/>
</g>
</g>
<defs>
<clipPath id="clip0_6_2">
<rect width="181" height="115" fill="white"/>
</clipPath>
<clipPath id="clip1_6_2">
<rect width="200" height="200" fill="white"/>
</clipPath>
</defs>
</svg>
