<svg width="20" height="18" viewBox="0 0 20 18" fill="none" xmlns="http://www.w3.org/2000/svg">
<path d="M19.7803 2.86797C19.0525 3.19117 18.2708 3.40867 17.4502 3.50677C18.2883 3.00485 18.9309 2.21016 19.2335 1.2626C18.4503 1.72725 17.5818 2.06491 16.657 2.24742C15.9171 1.45881 14.8631 0.966019 13.6965 0.966019C11.4562 0.966019 9.64014 2.78279 9.64014 5.02239C9.64014 5.34027 9.67665 5.65055 9.74509 5.94637C6.3739 5.77755 3.38523 4.1623 1.38366 1.70748C1.03536 2.30674 0.83536 3.00333 0.83536 3.74784C0.83536 5.15472 1.55097 6.39657 2.63921 7.12359C1.97455 7.10229 1.34868 6.91978 0.801899 6.61635C0.801899 6.63384 0.801899 6.64981 0.801899 6.6673C0.801899 8.63313 2.19965 10.2727 4.05597 10.6446C3.71604 10.7374 3.3571 10.7868 2.98674 10.7868C2.7259 10.7868 2.47114 10.7609 2.22399 10.7146C2.74035 12.326 4.23849 13.4994 6.01344 13.5321C4.62557 14.6204 2.87648 15.269 0.975287 15.269C0.648283 15.269 0.325081 15.25 0.00720215 15.212C1.80268 16.3626 3.9343 17.0341 6.22561 17.0341C13.6874 17.0341 17.7666 10.853 17.7666 5.49237C17.7666 5.3167 17.7628 5.14179 17.7552 4.96764C18.5484 4.395 19.2366 3.68092 19.7803 2.86797Z" fill="#171717"/>
</svg>
